<svg id="Layer_1" data-name="Layer 1" xmlns="http://www.w3.org/2000/svg" viewBox="0 0 907.09 510.24"><defs><style>.cls-1{fill:#232323;}</style></defs><path class="cls-1" d="M62,83.82A24.47,24.47,0,1,0,86.48,59.35H62Z"/><path class="cls-1" d="M62,132.76a24.47,24.47,0,1,1,24.47,24.47H62Z"/><path class="cls-1" d="M62,181.71a24.47,24.47,0,1,0,24.47-24.48H62Z"/><path class="cls-1" d="M62,230.65a24.47,24.47,0,1,1,24.47,24.47H62Z"/><path class="cls-1" d="M159.89,83.82a24.47,24.47,0,1,1-24.47-24.47h24.47Z"/><path class="cls-1" d="M159.89,132.76a24.47,24.47,0,1,0-24.47,24.47h24.47Z"/><path class="cls-1" d="M159.89,181.71a24.47,24.47,0,1,1-24.47-24.48h24.47Z"/><path class="cls-1" d="M159.89,230.65a24.47,24.47,0,1,0-24.47,24.47h24.47Z"/><path class="cls-1" d="M159.89,83.82a24.47,24.47,0,1,0,24.47-24.47H159.89Z"/><path class="cls-1" d="M159.89,132.76a24.47,24.47,0,1,1,24.47,24.47H159.89Z"/><path class="cls-1" d="M159.89,181.71a24.47,24.47,0,1,0,24.47-24.48H159.89Z"/><path class="cls-1" d="M159.89,230.65a24.47,24.47,0,1,1,24.47,24.47H159.89Z"/><path class="cls-1" d="M257.78,83.82A24.48,24.48,0,1,1,233.3,59.35h24.48Z"/><path class="cls-1" d="M257.78,132.76a24.48,24.48,0,1,0-24.48,24.47h24.48Z"/><path class="cls-1" d="M257.78,181.71a24.48,24.48,0,1,1-24.48-24.48h24.48Z"/><path class="cls-1" d="M257.78,230.65a24.48,24.48,0,1,0-24.48,24.47h24.48Z"/><path class="cls-1" d="M62,279.59a24.47,24.47,0,1,0,24.47-24.47H62Z"/><path class="cls-1" d="M62,328.53A24.47,24.47,0,1,1,86.48,353H62Z"/><path class="cls-1" d="M62,377.47A24.47,24.47,0,1,0,86.48,353H62Z"/><path class="cls-1" d="M62,426.41a24.47,24.47,0,1,1,24.47,24.48H62Z"/><path class="cls-1" d="M159.89,279.59a24.47,24.47,0,1,1-24.47-24.47h24.47Z"/><path class="cls-1" d="M159.89,328.53A24.47,24.47,0,1,0,135.42,353h24.47Z"/><path class="cls-1" d="M159.89,377.47A24.47,24.47,0,1,1,135.42,353h24.47Z"/><path class="cls-1" d="M159.89,426.41a24.47,24.47,0,1,0-24.47,24.48h24.47Z"/><path class="cls-1" d="M159.89,279.59a24.47,24.47,0,1,0,24.47-24.47H159.89Z"/><path class="cls-1" d="M159.89,328.53A24.47,24.47,0,1,1,184.36,353H159.89Z"/><path class="cls-1" d="M159.89,377.47A24.47,24.47,0,1,0,184.36,353H159.89Z"/><path class="cls-1" d="M159.89,426.41a24.47,24.47,0,1,1,24.47,24.48H159.89Z"/><path class="cls-1" d="M257.78,279.59a24.48,24.48,0,1,1-24.48-24.47h24.48Z"/><path class="cls-1" d="M257.78,328.53A24.48,24.48,0,1,0,233.3,353h24.48Z"/><path class="cls-1" d="M257.78,377.47A24.48,24.48,0,1,1,233.3,353h24.48Z"/><path class="cls-1" d="M257.78,426.41a24.48,24.48,0,1,0-24.48,24.48h24.48Z"/><path class="cls-1" d="M257.78,83.82a24.47,24.47,0,1,0,24.47-24.47H257.78Z"/><path class="cls-1" d="M257.78,132.76a24.47,24.47,0,1,1,24.47,24.47H257.78Z"/><path class="cls-1" d="M257.78,181.71a24.47,24.47,0,1,0,24.47-24.48H257.78Z"/><path class="cls-1" d="M257.78,230.65a24.47,24.47,0,1,1,24.47,24.47H257.78Z"/><path class="cls-1" d="M355.66,83.82a24.47,24.47,0,1,1-24.47-24.47h24.47Z"/><path class="cls-1" d="M355.66,132.76a24.47,24.47,0,1,0-24.47,24.47h24.47Z"/><path class="cls-1" d="M355.66,181.71a24.47,24.47,0,1,1-24.47-24.48h24.47Z"/><path class="cls-1" d="M355.66,230.65a24.47,24.47,0,1,0-24.47,24.47h24.47Z"/><path class="cls-1" d="M355.66,83.82a24.47,24.47,0,1,0,24.47-24.47H355.66Z"/><path class="cls-1" d="M355.66,132.76a24.47,24.47,0,1,1,24.47,24.47H355.66Z"/><path class="cls-1" d="M355.66,181.71a24.47,24.47,0,1,0,24.47-24.48H355.66Z"/><path class="cls-1" d="M355.66,230.65a24.47,24.47,0,1,1,24.47,24.47H355.66Z"/><path class="cls-1" d="M453.54,83.82a24.47,24.47,0,1,1-24.47-24.47h24.47Z"/><path class="cls-1" d="M453.54,132.76a24.47,24.47,0,1,0-24.47,24.47h24.47Z"/><path class="cls-1" d="M453.54,181.71a24.47,24.47,0,1,1-24.47-24.48h24.47Z"/><path class="cls-1" d="M453.54,230.65a24.47,24.47,0,1,0-24.47,24.47h24.47Z"/><path class="cls-1" d="M257.78,279.59a24.47,24.47,0,1,0,24.47-24.47H257.78Z"/><path class="cls-1" d="M257.78,328.53A24.47,24.47,0,1,1,282.25,353H257.78Z"/><path class="cls-1" d="M257.78,377.47A24.47,24.47,0,1,0,282.25,353H257.78Z"/><path class="cls-1" d="M257.78,426.41a24.47,24.47,0,1,1,24.47,24.48H257.78Z"/><path class="cls-1" d="M355.66,279.59a24.47,24.47,0,1,1-24.47-24.47h24.47Z"/><path class="cls-1" d="M355.66,328.53A24.47,24.47,0,1,0,331.19,353h24.47Z"/><path class="cls-1" d="M355.66,377.47A24.47,24.47,0,1,1,331.19,353h24.47Z"/><path class="cls-1" d="M355.66,426.41a24.47,24.47,0,1,0-24.47,24.48h24.47Z"/><path class="cls-1" d="M355.66,279.59a24.47,24.47,0,1,0,24.47-24.47H355.66Z"/><path class="cls-1" d="M355.66,328.53A24.47,24.47,0,1,1,380.13,353H355.66Z"/><path class="cls-1" d="M355.66,377.47A24.47,24.47,0,1,0,380.13,353H355.66Z"/><path class="cls-1" d="M355.66,426.41a24.47,24.47,0,1,1,24.47,24.48H355.66Z"/><path class="cls-1" d="M453.54,279.59a24.47,24.47,0,1,1-24.47-24.47h24.47Z"/><path class="cls-1" d="M453.54,328.53A24.47,24.47,0,1,0,429.07,353h24.47Z"/><path class="cls-1" d="M453.54,377.47A24.47,24.47,0,1,1,429.07,353h24.47Z"/><path class="cls-1" d="M453.54,426.41a24.47,24.47,0,1,0-24.47,24.48h24.47Z"/><path class="cls-1" d="M453.54,83.82A24.48,24.48,0,1,0,478,59.35H453.54Z"/><path class="cls-1" d="M453.54,132.76A24.48,24.48,0,1,1,478,157.23H453.54Z"/><path class="cls-1" d="M453.54,181.71A24.48,24.48,0,1,0,478,157.23H453.54Z"/><path class="cls-1" d="M453.54,230.65A24.48,24.48,0,1,1,478,255.12H453.54Z"/><path class="cls-1" d="M551.43,83.82A24.47,24.47,0,1,1,527,59.35h24.47Z"/><path class="cls-1" d="M551.43,132.76A24.47,24.47,0,1,0,527,157.23h24.47Z"/><path class="cls-1" d="M551.43,181.71A24.47,24.47,0,1,1,527,157.23h24.47Z"/><path class="cls-1" d="M551.43,230.65A24.47,24.47,0,1,0,527,255.12h24.47Z"/><path class="cls-1" d="M551.43,83.82A24.47,24.47,0,1,0,575.9,59.35H551.43Z"/><path class="cls-1" d="M551.43,132.76a24.47,24.47,0,1,1,24.47,24.47H551.43Z"/><path class="cls-1" d="M551.43,181.71a24.47,24.47,0,1,0,24.47-24.48H551.43Z"/><path class="cls-1" d="M551.43,230.65a24.47,24.47,0,1,1,24.47,24.47H551.43Z"/><path class="cls-1" d="M649.31,83.82a24.47,24.47,0,1,1-24.47-24.47h24.47Z"/><path class="cls-1" d="M649.31,132.76a24.47,24.47,0,1,0-24.47,24.47h24.47Z"/><path class="cls-1" d="M649.31,181.71a24.47,24.47,0,1,1-24.47-24.48h24.47Z"/><path class="cls-1" d="M649.31,230.65a24.47,24.47,0,1,0-24.47,24.47h24.47Z"/><path class="cls-1" d="M453.54,279.59A24.48,24.48,0,1,0,478,255.12H453.54Z"/><path class="cls-1" d="M453.54,328.53A24.48,24.48,0,1,1,478,353H453.54Z"/><path class="cls-1" d="M453.54,377.47A24.48,24.48,0,1,0,478,353H453.54Z"/><path class="cls-1" d="M453.54,426.41A24.48,24.48,0,1,1,478,450.89H453.54Z"/><path class="cls-1" d="M551.43,279.59A24.47,24.47,0,1,1,527,255.12h24.47Z"/><path class="cls-1" d="M551.43,328.53A24.47,24.47,0,1,0,527,353h24.47Z"/><path class="cls-1" d="M551.43,377.47A24.47,24.47,0,1,1,527,353h24.47Z"/><path class="cls-1" d="M551.43,426.41A24.47,24.47,0,1,0,527,450.89h24.47Z"/><path class="cls-1" d="M551.43,279.59a24.47,24.47,0,1,0,24.47-24.47H551.43Z"/><path class="cls-1" d="M551.43,328.53A24.47,24.47,0,1,1,575.9,353H551.43Z"/><path class="cls-1" d="M551.43,377.47A24.47,24.47,0,1,0,575.9,353H551.43Z"/><path class="cls-1" d="M551.43,426.41a24.47,24.47,0,1,1,24.47,24.48H551.43Z"/><path class="cls-1" d="M649.31,279.59a24.47,24.47,0,1,1-24.47-24.47h24.47Z"/><path class="cls-1" d="M649.31,328.53A24.47,24.47,0,1,0,624.84,353h24.47Z"/><path class="cls-1" d="M649.31,377.47A24.47,24.47,0,1,1,624.84,353h24.47Z"/><path class="cls-1" d="M649.31,426.41a24.47,24.47,0,1,0-24.47,24.48h24.47Z"/><path class="cls-1" d="M649.31,83.82a24.47,24.47,0,1,0,24.47-24.47H649.31Z"/><path class="cls-1" d="M649.31,132.76a24.47,24.47,0,1,1,24.47,24.47H649.31Z"/><path class="cls-1" d="M649.31,181.71a24.47,24.47,0,1,0,24.47-24.48H649.31Z"/><path class="cls-1" d="M649.31,230.65a24.47,24.47,0,1,1,24.47,24.47H649.31Z"/><path class="cls-1" d="M747.2,83.82a24.48,24.48,0,1,1-24.48-24.47H747.2Z"/><path class="cls-1" d="M747.2,132.76a24.48,24.48,0,1,0-24.48,24.47H747.2Z"/><path class="cls-1" d="M747.2,181.71a24.48,24.48,0,1,1-24.48-24.48H747.2Z"/><path class="cls-1" d="M747.2,230.65a24.48,24.48,0,1,0-24.48,24.47H747.2Z"/><path class="cls-1" d="M747.2,83.82a24.47,24.47,0,1,0,24.47-24.47H747.2Z"/><path class="cls-1" d="M747.2,132.76a24.47,24.47,0,1,1,24.47,24.47H747.2Z"/><path class="cls-1" d="M747.2,181.71a24.47,24.47,0,1,0,24.47-24.48H747.2Z"/><path class="cls-1" d="M747.2,230.65a24.47,24.47,0,1,1,24.47,24.47H747.2Z"/><path class="cls-1" d="M845.08,83.82a24.47,24.47,0,1,1-24.47-24.47h24.47Z"/><path class="cls-1" d="M845.08,132.76a24.47,24.47,0,1,0-24.47,24.47h24.47Z"/><path class="cls-1" d="M845.08,181.71a24.47,24.47,0,1,1-24.47-24.48h24.47Z"/><path class="cls-1" d="M845.08,230.65a24.47,24.47,0,1,0-24.47,24.47h24.47Z"/><path class="cls-1" d="M649.31,279.59a24.47,24.47,0,1,0,24.47-24.47H649.31Z"/><path class="cls-1" d="M649.31,328.53A24.47,24.47,0,1,1,673.78,353H649.31Z"/><path class="cls-1" d="M649.31,377.47A24.47,24.47,0,1,0,673.78,353H649.31Z"/><path class="cls-1" d="M649.31,426.41a24.47,24.47,0,1,1,24.47,24.48H649.31Z"/><path class="cls-1" d="M747.2,279.59a24.48,24.48,0,1,1-24.48-24.47H747.2Z"/><path class="cls-1" d="M747.2,328.53A24.48,24.48,0,1,0,722.72,353H747.2Z"/><path class="cls-1" d="M747.2,377.47A24.48,24.48,0,1,1,722.72,353H747.2Z"/><path class="cls-1" d="M747.2,426.41a24.48,24.48,0,1,0-24.48,24.48H747.2Z"/><path class="cls-1" d="M747.2,279.59a24.47,24.47,0,1,0,24.47-24.47H747.2Z"/><path class="cls-1" d="M747.2,328.53A24.47,24.47,0,1,1,771.67,353H747.2Z"/><path class="cls-1" d="M747.2,377.47A24.47,24.47,0,1,0,771.67,353H747.2Z"/><path class="cls-1" d="M747.2,426.41a24.47,24.47,0,1,1,24.47,24.48H747.2Z"/><path class="cls-1" d="M845.08,279.59a24.47,24.47,0,1,1-24.47-24.47h24.47Z"/><path class="cls-1" d="M845.08,328.53A24.47,24.47,0,1,0,820.61,353h24.47Z"/><path class="cls-1" d="M845.08,377.47A24.47,24.47,0,1,1,820.61,353h24.47Z"/><path class="cls-1" d="M845.08,426.41a24.47,24.47,0,1,0-24.47,24.48h24.47Z"/></svg>