<?xml version="1.0" encoding="UTF-8"?>
<svg xmlns="http://www.w3.org/2000/svg" id="Layer_1" data-name="Layer 1" viewBox="0 0 125 29">
  <defs>
    <style>.cls-1{fill:#20202f;}.cls-2{fill:#775dd8;}.cls-3{fill:#624ec1;}.cls-4{fill:#b09bfa;}</style>
  </defs>
  <polygon class="cls-1" points="29.61 8.14 29.61 10.4 32.78 10.4 32.78 20.64 35.39 20.64 35.39 10.4 38.51 10.4 38.51 8.14 29.61 8.14"></polygon>
  <path class="cls-1" d="M38.27,20.64V11.48h2.35v2.19l-.17-.31a2.4,2.4,0,0,1,1-1.57,3.16,3.16,0,0,1,1.65-.41h.54v2.18h-.79a2.05,2.05,0,0,0-1.49.56,2.12,2.12,0,0,0-.57,1.59v4.93Z"></path>
  <path class="cls-1" d="M51.85,12.86a3.22,3.22,0,0,0-1.38-1.16,4.75,4.75,0,0,0-2-.42,5.13,5.13,0,0,0-1.79.3,4,4,0,0,0-1.41.85,3.29,3.29,0,0,0-.86,1.33l2,1a2.1,2.1,0,0,1,.74-1,2,2,0,0,1,1.18-.37,1.64,1.64,0,0,1,1.12.36,1.1,1.1,0,0,1,.41.87v.24l-2.53.41a5.34,5.34,0,0,0-1.82.57,2.7,2.7,0,0,0-1.08,1A2.59,2.59,0,0,0,44,18.19a2.54,2.54,0,0,0,.39,1.42,2.46,2.46,0,0,0,1.11.91,4.24,4.24,0,0,0,1.71.32,4.66,4.66,0,0,0,1.34-.19,3.39,3.39,0,0,0,1.09-.59c.11-.09.21-.2.32-.31v.89h2.35v-6A3.09,3.09,0,0,0,51.85,12.86ZM49.57,18a1.87,1.87,0,0,1-.73.72,2.15,2.15,0,0,1-1.09.27,1.27,1.27,0,0,1-.79-.23.79.79,0,0,1-.32-.66.85.85,0,0,1,.29-.69,1.78,1.78,0,0,1,.82-.35l2.08-.37V17A2.09,2.09,0,0,1,49.57,18Z"></path>
  <path class="cls-1" d="M58.35,20.84a4.88,4.88,0,0,1-2.47-.63A4.69,4.69,0,0,1,53.49,16a4.65,4.65,0,0,1,.64-2.44,4.51,4.51,0,0,1,1.74-1.7,5.3,5.3,0,0,1,4.38-.27,4.25,4.25,0,0,1,1.49,1,3.57,3.57,0,0,1,.89,1.48L60.45,15a2.2,2.2,0,0,0-.8-1.09,2.14,2.14,0,0,0-1.3-.4,2.17,2.17,0,0,0-1.16.32,2.25,2.25,0,0,0-.81.89,3.1,3.1,0,0,0,0,2.62,2.23,2.23,0,0,0,.81.88,2.09,2.09,0,0,0,1.16.32,2.15,2.15,0,0,0,1.31-.4,2.2,2.2,0,0,0,.79-1.09l2.18,1a3.72,3.72,0,0,1-.87,1.44,4.3,4.3,0,0,1-1.49,1A5,5,0,0,1,58.35,20.84Z"></path>
  <polygon class="cls-1" points="72.5 11.48 69.39 11.48 66.29 14.77 66.29 7.94 63.77 7.94 63.77 20.64 66.29 20.64 66.29 17.83 67.3 16.73 69.63 20.64 72.48 20.64 69.17 15.17 72.5 11.48"></polygon>
  <path class="cls-1" d="M76.12,20.64V9.15H72.63v-1h8v1H77.21V20.64Z"></path>
  <path class="cls-1" d="M81,20.64V11.73h1v1.68l-.18-.15a2.26,2.26,0,0,1,1-1.2,3.09,3.09,0,0,1,1.66-.43H85v1h-.67a2.18,2.18,0,0,0-1.72.7A2.69,2.69,0,0,0,82,15.18v5.46Z"></path>
  <path class="cls-1" d="M90.43,20.84a4.32,4.32,0,0,1-2.26-.61,4.5,4.5,0,0,1-1.6-1.67A4.86,4.86,0,0,1,86,16.17a4.94,4.94,0,0,1,.57-2.39,4.3,4.3,0,0,1,1.54-1.65,4.06,4.06,0,0,1,2.18-.6,3.93,3.93,0,0,1,1.67.34,3.87,3.87,0,0,1,1.28.93,4.27,4.27,0,0,1,.84,1.35,4.4,4.4,0,0,1,.3,1.62c0,.11,0,.23,0,.35s0,.24,0,.37H86.57v-.92h7.17l-.46.37A3.14,3.14,0,0,0,93,14.17a3.07,3.07,0,0,0-1.1-1.24,2.92,2.92,0,0,0-1.62-.46A3.1,3.1,0,0,0,88.6,13a3.33,3.33,0,0,0-1.19,1.3A3.66,3.66,0,0,0,87,16.17a3.54,3.54,0,0,0,.41,1.94,3.25,3.25,0,0,0,1.25,1.32,3.34,3.34,0,0,0,1.74.47,3.09,3.09,0,0,0,1.7-.46,3.69,3.69,0,0,0,1.17-1.22l.84.45a3.34,3.34,0,0,1-.84,1.12,4,4,0,0,1-1.28.77A4.36,4.36,0,0,1,90.43,20.84Z"></path>
  <path class="cls-1" d="M96.44,20.64V11.73h1v1.81l-.24-.08a2.72,2.72,0,0,1,1.08-1.4,3.11,3.11,0,0,1,1.81-.53,3.43,3.43,0,0,1,1.68.42,3.16,3.16,0,0,1,1.67,2.88v5.81h-1V15.1a2.82,2.82,0,0,0-.32-1.38,2.22,2.22,0,0,0-.88-.89,2.62,2.62,0,0,0-1.29-.31,2.4,2.4,0,0,0-1.33.35,2.34,2.34,0,0,0-.87,1,3.13,3.13,0,0,0-.31,1.43v5.37Z"></path>
  <path class="cls-1" d="M109.69,20.84a4.28,4.28,0,0,1-2.24-.61,4.47,4.47,0,0,1-1.57-1.66,4.9,4.9,0,0,1-.57-2.38,4.94,4.94,0,0,1,.57-2.39,4.4,4.4,0,0,1,1.57-1.66,4.19,4.19,0,0,1,2.24-.61,4.06,4.06,0,0,1,2.18.58,4,4,0,0,1,1.45,1.56l-.17.32v-6h1v12.7h-1V18.37l.17.24a3.68,3.68,0,0,1-1.44,1.63A4,4,0,0,1,109.69,20.84Zm0-1a3.2,3.2,0,0,0,1.74-.48,3.4,3.4,0,0,0,1.22-1.3,3.77,3.77,0,0,0,.45-1.86,3.87,3.87,0,0,0-.45-1.88,3.47,3.47,0,0,0-1.22-1.3A3.36,3.36,0,0,0,108,13a3.4,3.4,0,0,0-1.19,1.3,3.87,3.87,0,0,0-.44,1.88,3.76,3.76,0,0,0,.44,1.86,3.25,3.25,0,0,0,1.19,1.3A3.14,3.14,0,0,0,109.72,19.83Z"></path>
  <path class="cls-1" d="M116.62,24.33a3,3,0,0,1-.5,0,2.12,2.12,0,0,1-.54-.13v-.92l.48.07.48,0a2,2,0,0,0,1.29-.39,3.27,3.27,0,0,0,.85-1.29l.64-1.49v.94l-3.77-9.38h1.09l3.25,8.1h-.42l3.27-8.1h1.13L119.69,21.9a6.39,6.39,0,0,1-.6,1.11,3.29,3.29,0,0,1-1,.94A2.78,2.78,0,0,1,116.62,24.33Z"></path>
  <circle class="cls-2" cx="19.7" cy="23.08" r="2.15"></circle>
  <circle class="cls-3" cx="7.6" cy="7.78" r="6.6"></circle>
  <path class="cls-4" d="M13.65,22.43a7.31,7.31,0,0,1-7.3-7,7.71,7.71,0,0,1-4.79-2.8,12.21,12.21,0,0,0-.26,2.51A12.36,12.36,0,0,0,13.65,27.48a2.53,2.53,0,0,0,0-5.05Z"></path>
  <path class="cls-4" d="M15.35,7.78a1.93,1.93,0,0,1,0,.24A7.31,7.31,0,0,1,21,15.13a7.22,7.22,0,0,1-2.09,5.1,2.94,2.94,0,0,1,1-.19,2.84,2.84,0,0,1,2.84,2.84,2.69,2.69,0,0,1-.1.7A12.21,12.21,0,0,0,26,15.13,12.36,12.36,0,0,0,13.65,2.78h-.13A7.72,7.72,0,0,1,15.35,7.78Z"></path>
</svg>
